# xmcd
#
# Track frame offsets:
#	183
#	22600
#	38313
#	54730
#	86215
#	105855
#	124023
#	139845
#	159703
#	193940
#	210683
#	222575
#	235698
#	252993
#	272538
#	284498
#	299228
#
# Disc length: 4238 seconds
#
# Revision: 3
# Processed by: cddbd v1.5.2PL0 Copyright (c) Steve Scherf et al.
# Submitted via: audiograbber 1.83.01
#
DISCID=00108c11
DTITLE=animals and sonny boy williamson - 16 great hits(original playing order)
DYEAR=1963
DGENRE=
TTITLE0=boom boom
TTITLE1=my babe 
TTITLE2=pontiac blues 
TTITLE3=nobody but you
TTITLE4=i'm gonna put you down
TTITLE5=fattining frogs for snakes
TTITLE6=dimples 
TTITLE7=c. jam blues
TTITLE8=bo diddley
TTITLE9=i'm almost grown
TTITLE10=sonny's slow walk
TTITLE11=i don't care no more
TTITLE12=baby don't you worry
TTITLE13=gotta find my baby
TTITLE14=bye-bye sonny bye-bye
TTITLE15=let it rock
TTITLE16=night time is the right time
EXTD=Recorded dec.1963 in Newcastle\nProduced by Giorgio Gomelsky\nOriginal pla
EXTD=ying order :16;14;09;10;07;01;08;11;03;02;12;13;17;05;06;04;15.
EXTT0=
EXTT1=
EXTT2=
EXTT3=
EXTT4=
EXTT5=
EXTT6=
EXTT7=
EXTT8=
EXTT9=
EXTT10=
EXTT11=
EXTT12=
EXTT13=
EXTT14=
EXTT15=
EXTT16=
PLAYORDER=
